<svg width="241" height="20" viewBox="0 0 241 20" fill="none" xmlns="http://www.w3.org/2000/svg">
<path fill-rule="evenodd" clip-rule="evenodd" d="M88.9543 17.7755C88.7178 18.1691 88.3849 18.4937 87.9879 18.7177C87.591 18.9417 87.1436 19.0575 86.6895 19.0536H79.4651C79.4405 19.0532 79.4165 19.0459 79.3958 19.0324C79.375 19.019 79.3583 18.9999 79.3476 18.9774C79.3354 18.9543 79.3298 18.9282 79.331 18.902C79.3322 18.8758 79.3405 18.8504 79.3548 18.8285L90.0763 1.93085C90.4316 1.33965 90.9319 0.852155 91.5285 0.516012C92.125 0.179869 92.7972 0.00658346 93.4795 0.0131H104.841C105.523 0.0067006 106.195 0.180034 106.792 0.516167C107.388 0.852299 107.889 1.33973 108.244 1.93085L118.965 18.8285C118.98 18.8504 118.988 18.8758 118.989 18.902C118.99 18.9282 118.985 18.9543 118.972 18.9774C118.962 19 118.945 19.0191 118.925 19.0326C118.904 19.0461 118.88 19.0534 118.855 19.0536H111.627C111.173 19.0575 110.725 18.9419 110.328 18.7179C109.931 18.4939 109.598 18.1692 109.361 17.7755L106.606 13.4338C106.576 13.3847 106.534 13.3442 106.485 13.3162C106.435 13.2882 106.38 13.2738 106.323 13.2742H95.16C95.1352 13.2738 95.1111 13.2663 95.0904 13.2526C95.0696 13.2389 95.0531 13.2196 95.0427 13.1968C95.0312 13.1736 95.0258 13.1478 95.0271 13.122C95.0283 13.0961 95.0361 13.071 95.0497 13.0491L96.7761 10.3273C96.8057 10.2781 96.8472 10.2375 96.8967 10.2093C96.9462 10.1812 97.0021 10.1664 97.0588 10.1665H104.281C104.306 10.1662 104.33 10.1589 104.35 10.1454C104.371 10.132 104.388 10.1128 104.398 10.0902C104.41 10.0673 104.416 10.0414 104.415 10.0154C104.414 9.98936 104.406 9.96416 104.391 9.94253L100.475 3.77118C100.357 3.57409 100.191 3.4115 99.9921 3.29936C99.7936 3.18723 99.5698 3.12939 99.3426 3.13153H98.9905C98.7633 3.12951 98.5395 3.1874 98.341 3.29952C98.1425 3.41165 97.9761 3.57417 97.8581 3.77118L88.9543 17.7755ZM77.1015 9.92824V18.688C77.1028 18.7351 77.0949 18.782 77.0782 18.826C77.0615 18.87 77.0363 18.9102 77.0042 18.9443C76.9722 18.9784 76.9337 19.0057 76.8912 19.0247C76.8487 19.0437 76.8029 19.0539 76.7564 19.0548H52.4852C38.5376 19.0548 38.7547 10.531 38.7547 9.53516C38.7547 8.53936 38.54 0.015481 52.4852 0.015481H76.7564C76.803 0.0164044 76.8489 0.0266885 76.8915 0.0457342C76.9341 0.0647798 76.9726 0.092213 77.0047 0.126443C77.0368 0.160672 77.0618 0.201019 77.0785 0.245151C77.0951 0.289284 77.1029 0.336323 77.1015 0.383549V2.80635C77.1029 2.85358 77.0951 2.90061 77.0785 2.94475C77.0618 2.98888 77.0368 3.02923 77.0047 3.06346C76.9726 3.09769 76.9341 3.12512 76.8915 3.14416C76.8489 3.16321 76.803 3.17349 76.7564 3.17441H55.588C49.2133 3.17441 47.9294 6.49773 47.9294 9.56375C47.9294 12.6298 49.2133 15.9543 55.588 15.9543H68.2131C68.2602 15.9543 68.3069 15.9447 68.3503 15.9261C68.3938 15.9075 68.433 15.8802 68.4658 15.8458C68.4986 15.8115 68.5244 15.7708 68.5414 15.7262C68.5585 15.6816 68.5665 15.634 68.5651 15.5862V9.92824C68.5638 9.88052 68.572 9.83302 68.5891 9.78856C68.6063 9.7441 68.6321 9.70357 68.6649 9.66937C68.6977 9.63518 68.7369 9.608 68.7803 9.58945C68.8236 9.5709 68.8702 9.56135 68.9172 9.56137H76.767C76.8585 9.5666 76.9445 9.60785 77.0065 9.67636C77.0686 9.74487 77.1018 9.83524 77.0992 9.92824H77.1015ZM217.232 8.1165H238.039C238.086 8.11742 238.132 8.12767 238.174 8.14664C238.217 8.16561 238.255 8.19294 238.287 8.22704C238.319 8.26114 238.344 8.30134 238.361 8.34534C238.378 8.38933 238.386 8.43624 238.384 8.48337V10.5858C238.386 10.6329 238.378 10.6798 238.361 10.7238C238.344 10.7678 238.319 10.808 238.287 10.8421C238.255 10.8762 238.217 10.9035 238.174 10.9225C238.132 10.9415 238.086 10.9517 238.039 10.9526H217.232C217.027 10.9476 216.832 10.8603 216.689 10.7096C216.547 10.5589 216.469 10.3573 216.473 10.1486V8.92052C216.469 8.71198 216.547 8.51029 216.689 8.3596C216.831 8.20891 217.027 8.1215 217.232 8.1165ZM202.622 9.53397C202.622 8.53816 202.407 0.0142905 216.352 0.0142905H240.26C240.307 0.0142735 240.353 0.023825 240.397 0.0423762C240.44 0.0609275 240.479 0.0881046 240.512 0.122303C240.545 0.156502 240.571 0.197028 240.588 0.241489C240.605 0.28595 240.613 0.333445 240.612 0.381168V2.80635C240.613 2.85407 240.605 2.90157 240.588 2.94603C240.571 2.99049 240.545 3.03102 240.512 3.06521C240.479 3.09941 240.44 3.12659 240.397 3.14514C240.353 3.16369 240.307 3.17324 240.26 3.17322H219.455C213.1 3.17322 211.805 6.47866 211.797 9.53635C211.788 12.594 213.099 15.8995 219.455 15.8995H240.26C240.307 15.8995 240.353 15.909 240.397 15.9276C240.44 15.9461 240.479 15.9733 240.512 16.0075C240.545 16.0417 240.571 16.0822 240.588 16.1267C240.605 16.1711 240.613 16.2186 240.612 16.2663V18.6915C240.613 18.7393 240.605 18.7868 240.588 18.8312C240.571 18.8757 240.545 18.9162 240.512 18.9504C240.479 18.9846 240.44 19.0118 240.397 19.0303C240.353 19.0489 240.307 19.0584 240.26 19.0584H216.352C202.405 19.0536 202.619 10.5322 202.619 9.53397H202.622ZM121.544 19.0536H129.398C129.492 19.0536 129.581 19.016 129.647 18.949C129.713 18.882 129.75 18.7911 129.75 18.6963C129.809 13.653 129.75 8.57152 129.75 3.52461C129.749 3.47749 129.757 3.43057 129.774 3.38658C129.79 3.34259 129.816 3.30238 129.848 3.26828C129.88 3.23417 129.918 3.20685 129.961 3.18788C130.003 3.16891 130.049 3.15866 130.095 3.15774H142.72C149.095 3.15774 150.378 5.37447 150.378 7.41968C150.378 9.46488 149.094 11.6816 142.72 11.6816H133.398C133.351 11.6816 133.304 11.6912 133.261 11.7098C133.217 11.7284 133.178 11.7557 133.145 11.79C133.112 11.8244 133.086 11.865 133.069 11.9096C133.052 11.9542 133.044 12.0019 133.046 12.0497V14.4749C133.044 14.5226 133.053 14.5701 133.07 14.6145C133.087 14.659 133.113 14.6995 133.145 14.7337C133.178 14.7679 133.217 14.7951 133.261 14.8137C133.304 14.8322 133.351 14.8418 133.398 14.8417H145.822C159.771 14.8417 159.553 8.1975 159.553 7.42087C159.553 6.64424 159.77 2.26033e-08 145.822 2.26033e-08H121.552C121.505 0.000770434 121.459 0.0108967 121.417 0.0297988C121.374 0.0487008 121.336 0.076003 121.304 0.110121C121.271 0.144239 121.246 0.184495 121.229 0.228566C121.213 0.272637 121.205 0.319647 121.206 0.366873V18.6868C121.203 18.7804 121.237 18.8712 121.3 18.9398C121.362 19.0084 121.449 19.0493 121.541 19.0536H121.544ZM162.059 19.0536H169.913C170.006 19.0536 170.096 19.016 170.162 18.949C170.228 18.882 170.265 18.7911 170.265 18.6963C170.325 13.653 170.265 8.57152 170.265 3.52461C170.263 3.47689 170.272 3.4294 170.289 3.38494C170.306 3.34047 170.332 3.29995 170.364 3.26575C170.397 3.23155 170.437 3.20437 170.48 3.18582C170.523 3.16727 170.57 3.15772 170.617 3.15774H183.24C189.615 3.15774 190.898 5.37447 190.898 7.41968C190.898 9.46488 189.615 11.6816 183.24 11.6816H173.918C173.871 11.6816 173.824 11.6912 173.781 11.7098C173.737 11.7284 173.698 11.7557 173.665 11.79C173.632 11.8244 173.607 11.865 173.59 11.9096C173.573 11.9542 173.564 12.0019 173.566 12.0497V14.4749C173.565 14.5226 173.573 14.5701 173.59 14.6145C173.607 14.659 173.633 14.6995 173.666 14.7337C173.698 14.7679 173.738 14.7951 173.781 14.8137C173.824 14.8322 173.871 14.8418 173.918 14.8417H186.341C200.29 14.8417 200.072 8.1975 200.072 7.42087C200.072 6.64424 200.289 2.26033e-08 186.341 2.26033e-08H162.072C162.025 -1.69547e-05 161.979 0.00952996 161.935 0.0280812C161.892 0.0466324 161.853 0.0738096 161.82 0.108008C161.787 0.142206 161.761 0.182733 161.744 0.227194C161.727 0.271655 161.719 0.31915 161.72 0.366873V18.6868C161.718 18.7806 161.752 18.8716 161.815 18.9402C161.878 19.0089 161.965 19.0496 162.057 19.0536H162.059ZM9.62727 17.7755C9.39076 18.1691 9.05768 18.4937 8.66073 18.7177C8.26377 18.9417 7.81643 19.0575 7.36226 19.0536H0.133169C0.108627 19.053 0.0847994 19.0455 0.0641203 19.0321C0.0434412 19.0186 0.0267225 18.9998 0.0158433 18.9774C0.00419413 18.9541 -0.0012138 18.928 0.00022846 18.9018C0.00167073 18.8757 0.0100062 18.8504 0.0241521 18.8285L10.7444 1.93085C11.0999 1.33981 11.6004 0.852442 12.1968 0.516321C12.7933 0.1802 13.4655 0.00681766 14.1477 0.0131H25.51C26.1922 0.00681766 26.8643 0.1802 27.4608 0.516321C28.0573 0.852442 28.5578 1.33981 28.9133 1.93085L39.6348 18.8285C39.6486 18.8506 39.6565 18.8759 39.6577 18.902C39.659 18.9281 39.6534 18.9541 39.6418 18.9774C39.631 18.9998 39.6144 19.0186 39.5937 19.0321C39.573 19.0455 39.549 19.053 39.5245 19.0536H32.2954C31.8411 19.0577 31.3934 18.942 30.9962 18.718C30.5991 18.494 30.266 18.1693 30.0294 17.7755L27.2739 13.4338C27.2442 13.3848 27.2027 13.3443 27.1531 13.3164C27.1036 13.2884 27.0478 13.2739 26.9911 13.2742H15.8282C15.8035 13.2735 15.7795 13.266 15.7587 13.2523C15.738 13.2386 15.7215 13.2194 15.7109 13.1968C15.6992 13.1736 15.6938 13.1477 15.6953 13.1218C15.6967 13.0958 15.7049 13.0707 15.7191 13.0491L17.4466 10.3273C17.476 10.2779 17.5175 10.2372 17.5671 10.209C17.6166 10.1808 17.6725 10.1662 17.7294 10.1665H24.9503C24.9749 10.1659 24.9988 10.1585 25.0195 10.1451C25.0402 10.1316 25.0568 10.1127 25.0676 10.0902C25.0793 10.0671 25.0847 10.0412 25.0832 10.0153C25.0818 9.9893 25.0735 9.9642 25.0593 9.94253L21.1444 3.77118C21.0262 3.57433 20.8597 3.41194 20.6612 3.29983C20.4627 3.18773 20.2391 3.12975 20.012 3.13153H19.6599C19.4328 3.12986 19.2091 3.1879 19.0106 3.29999C18.8122 3.41208 18.6457 3.57441 18.5274 3.77118L9.62727 17.7755Z" fill="#002581"/>
</svg>
