<svg width="207" height="49" viewBox="0 0 207 49" fill="none" xmlns="http://www.w3.org/2000/svg">
<path d="M18.9527 18.0901C19.3507 18.4941 19.8623 18.696 20.374 18.696V1.90735e-06C19.2938 1.90735e-06 18.2421 0.403928 17.4177 1.24063L12.2159 6.52053L12.1874 6.54938L9.88498 8.88638L18.9527 18.0901Z" fill="#00D77A"/>
<path d="M1.21519 17.6574C-0.405063 19.3019 -0.405063 21.9851 1.21519 23.6297L12.8128 35.4013C13.3529 35.9494 13.6371 36.6707 13.6371 37.4497V43.9126C13.6371 46.2496 15.5132 48.1249 17.8157 48.1249H20.374V35.257C19.4644 35.257 18.5263 34.9108 17.8441 34.1895L1.35732 17.4842" fill="#00D77A"/>
<path d="M2.46591 16.3879L18.9527 33.0931C19.3507 33.497 19.8623 33.699 20.374 33.699V27.8998C19.4644 27.8998 18.5263 27.5535 17.8441 26.8322L4.99578 13.82L2.46591 16.3879Z" fill="#00D77A"/>
<path d="M6.10437 12.6948L18.9243 25.707C19.3222 26.0821 19.8055 26.3129 20.3455 26.3129V20.2829C19.4359 20.2829 18.4979 19.9366 17.8157 19.2154L8.77637 10.0116L6.10437 12.6948Z" fill="#00D77A"/>
<path d="M31.9716 10.0116L22.9038 19.2154C22.1932 19.9366 21.2836 20.2829 20.374 20.2829V26.3129C20.914 26.3129 21.4257 26.1109 21.7952 25.707L34.6436 12.6948L31.9716 10.0116Z" fill="#005BFF"/>
<path d="M21.7952 18.0901L30.863 8.88638L28.5605 6.54938L28.5321 6.52053L23.3302 1.24063C22.5059 0.403928 21.4257 1.90735e-06 20.374 1.90735e-06V18.696C20.8856 18.696 21.3973 18.4941 21.7952 18.0901Z" fill="#005BFF"/>
<path d="M39.3906 17.5131L22.9038 34.2183C22.1932 34.9396 21.2836 35.2858 20.374 35.2858V48.1538H22.9323C25.2347 48.1538 27.1108 46.2496 27.1108 43.9414V37.4786C27.1108 36.7284 27.4235 35.9783 27.9351 35.4301L39.5327 23.6585C41.153 22.014 41.153 19.3308 39.5327 17.6862L39.3906 17.5131Z" fill="#005BFF"/>
<path d="M35.7522 13.82L22.9038 26.8322C22.1932 27.5535 21.2836 27.8998 20.374 27.8998V33.699C20.8856 33.699 21.3973 33.497 21.7952 33.0931L38.282 16.3879L35.7522 13.82Z" fill="#005BFF"/>
<path d="M55.1668 14.3682H66.2811L67.9298 10.5309H54.6835H53.5465H51.1304V37.0458H55.1668" fill="#231F20"/>
<path d="M203.235 22.0428H206.788V37.017H203.235V35.5455C201.785 36.9015 200.222 37.594 198.573 37.594C196.47 37.594 194.736 36.8438 193.372 35.3147C192.007 33.7567 191.325 31.8236 191.325 29.4866C191.325 27.1496 192.007 25.2742 193.372 23.7739C194.736 22.2736 196.441 21.4946 198.488 21.4946C200.25 21.4946 201.842 22.2159 203.235 23.6874V22.0428ZM194.907 29.4866C194.907 30.9581 195.304 32.141 196.072 33.0642C196.868 33.9875 197.891 34.4491 199.113 34.4491C200.421 34.4491 201.473 33.9875 202.269 33.0931C203.065 32.1698 203.463 30.9869 203.463 29.5443C203.463 28.1017 203.065 26.9188 202.269 25.9955C201.473 25.1011 200.421 24.6395 199.142 24.6395C197.948 24.6395 196.925 25.1011 196.1 26.0244C195.304 26.9765 194.907 28.1017 194.907 29.4866Z" fill="#231F20"/>
<path d="M114.605 13.2719L118.129 10.5309V37.0458H114.605V35.5744C113.212 36.9304 111.648 37.6228 109.914 37.6228C107.839 37.6228 106.105 36.8727 104.741 35.3435C103.376 33.7855 102.694 31.8525 102.694 29.5155C102.694 27.1785 103.376 25.3319 104.741 23.8028C106.105 22.2736 107.782 21.4946 109.857 21.4946C111.648 21.4946 113.24 22.2159 114.633 23.6874L114.605 13.2719ZM106.276 29.4866C106.276 30.9581 106.674 32.141 107.441 33.0642C108.237 33.9875 109.261 34.4491 110.483 34.4491C111.79 34.4491 112.842 33.9875 113.638 33.0931C114.434 32.1698 114.832 30.9869 114.832 29.5443C114.832 28.1017 114.434 26.9188 113.638 25.9955C112.842 25.1011 111.79 24.6395 110.511 24.6395C109.317 24.6395 108.294 25.1011 107.47 26.0244C106.674 26.9765 106.276 28.1017 106.276 29.4866Z" fill="#231F20"/>
<path d="M186.862 21.4658V37.0458H183.337V24.2067L186.862 21.4658Z" fill="#231F20"/>
<path d="M186.862 14.224V17.9459L183.337 20.6868V16.9649L186.862 14.224Z" fill="#005BFF"/>
<path d="M85.1273 22.0428H88.652V23.3123C89.8743 22.1005 91.2672 21.4658 92.8021 21.4658C94.5645 21.4658 95.9574 22.0428 96.9238 23.1681C97.7766 24.1202 98.203 25.6782 98.203 27.8132V37.017H94.6782V28.6499C94.6782 27.1496 94.4792 26.111 94.0529 25.5339C93.6549 24.9569 92.9158 24.6684 91.8357 24.6684C90.6702 24.6684 89.8459 25.0434 89.3627 25.8224C88.8794 26.5726 88.652 27.9286 88.652 29.8328V37.0458H85.1273V22.0428Z" fill="#231F20"/>
<path d="M175.35 13.2719L178.874 10.5309V37.017H175.35V35.5455C173.957 36.9015 172.393 37.594 170.66 37.594C168.584 37.594 166.851 36.8438 165.486 35.3147C164.122 33.7567 163.439 31.8236 163.439 29.4866C163.439 27.1496 164.122 25.3031 165.486 23.7739C166.851 22.2448 168.528 21.4658 170.603 21.4658C172.393 21.4658 173.985 22.1871 175.378 23.6585L175.35 13.2719ZM167.021 29.4866C167.021 30.9581 167.419 32.141 168.187 33.0642C168.982 33.9875 170.006 34.4491 171.228 34.4491C172.536 34.4491 173.587 33.9875 174.383 33.0931C175.179 32.1698 175.577 30.9869 175.577 29.5443C175.577 28.1017 175.179 26.9188 174.383 25.9955C173.587 25.1011 172.536 24.6395 171.256 24.6395C170.063 24.6395 169.039 25.1011 168.215 26.0244C167.419 26.9765 167.021 28.1017 167.021 29.4866Z" fill="#231F20"/>
<path d="M132.456 24.4952L129.556 26.0533C129.101 25.1011 128.533 24.6395 127.851 24.6395C127.538 24.6395 127.254 24.7549 127.026 24.9569C126.799 25.1588 126.685 25.4474 126.685 25.7647C126.685 26.3418 127.368 26.9188 128.704 27.4958C130.551 28.3037 131.83 29.0538 132.456 29.7174C133.109 30.4099 133.422 31.3043 133.422 32.4584C133.422 33.9298 132.882 35.1704 131.802 36.1514C130.75 37.1035 129.471 37.5651 127.993 37.5651C125.435 37.5651 123.644 36.3245 122.592 33.8144L125.577 32.4295C126.003 33.1508 126.316 33.6124 126.515 33.8144C126.941 34.2183 127.453 34.4203 128.05 34.4203C129.244 34.4203 129.841 33.8721 129.841 32.8046C129.841 32.1698 129.386 31.5928 128.476 31.0446C128.135 30.8715 127.765 30.6984 127.424 30.5253C127.083 30.3522 126.714 30.1791 126.344 30.006C125.321 29.5155 124.61 28.9961 124.184 28.5057C123.644 27.8709 123.388 27.0342 123.388 26.0533C123.388 24.7261 123.843 23.6297 124.752 22.7641C125.662 21.8986 126.799 21.4658 128.135 21.4658C130.068 21.4658 131.518 22.4756 132.456 24.4952Z" fill="#231F20"/>
<path d="M71.1987 22.0428V30.6695C71.1987 33.2085 72.1936 34.478 74.1834 34.478C76.1732 34.478 77.1681 33.2085 77.1681 30.6695L77.1397 22.0428H80.6644V30.7273C80.6644 31.939 80.5223 33.0065 80.2096 33.901C79.9254 34.7088 79.4137 35.4013 78.7031 36.0648C77.5092 37.1035 76.0027 37.6228 74.1834 37.6228C72.3642 37.6228 70.8576 37.1035 69.6638 36.0648C68.9247 35.4301 68.413 34.7088 68.1288 33.901C67.8445 33.1797 67.7024 32.141 67.7024 30.7273V22.0428H71.1987Z" fill="#231F20"/>
<path d="M137.913 13.2719L141.438 10.5309V37.0458H137.913V13.2719Z" fill="#231F20"/>
<path d="M55.1668 36.613V25.8801H61.5625L63.2396 22.0428H55.1668V13.9355" fill="#231F20"/>
<path d="M145.872 22.0428H149.397V23.3123C150.62 22.1005 152.012 21.4658 153.547 21.4658C155.31 21.4658 156.703 22.0428 157.669 23.1681C158.522 24.1202 158.948 25.6782 158.948 27.8132V37.017H155.423V28.6499C155.423 27.1496 155.224 26.111 154.798 25.5339C154.4 24.9569 153.661 24.6684 152.581 24.6684C151.415 24.6684 150.591 25.0434 150.108 25.8224C149.625 26.5726 149.397 27.9286 149.397 29.8328V37.0458H145.872V22.0428Z" fill="#231F20"/>
</svg>
