<svg width="123" height="48" viewBox="0 0 123 48" fill="none" xmlns="http://www.w3.org/2000/svg">
<path d="M103.66 0C96.2705 0 84.8661 4.02022 84.8661 18.3437C84.8661 32.6672 96.2705 36.6935 103.66 36.6935C111.049 36.6935 122.455 32.6672 122.455 18.3437C122.455 4.02022 111.049 0 103.66 0ZM14.7769 0.396786L16.0879 3.333V33.7146L23.2268 28.6357V19.7843H27.4908C34.4992 19.7843 38.0698 21.3355 38.0698 25.4981C38.0698 29.1885 35.2086 30.7478 30.7144 30.7478H23.8883L16.0879 36.2967H30.6603C39.388 36.2967 45.2627 33.1049 45.2627 25.7239C45.2627 19.2857 40.0646 16.7566 35.4235 16.7566C38.6318 16.7566 42.418 13.8416 42.418 8.8941C42.418 3.94811 37.9612 0.396786 32.8795 0.396786H18.0065H14.7769ZM48.5705 0.396786L49.8756 3.333V33.7146L57.0205 28.6357V5.94568H61.8799C63.8873 5.94568 74.1248 6.45667 74.1248 18.3437C74.1248 31.9086 61.8799 30.7478 61.8799 30.7478H57.682L49.8756 36.2967H63.8887C72.6164 36.2967 81.5643 30.8475 81.5643 18.3437C81.5643 7.25908 73.7511 0.396786 63.8887 0.396786H48.5705ZM103.66 5.34134C108.124 5.34134 115.015 8.19157 115.015 18.3437C115.015 28.4958 108.124 31.3522 103.66 31.3522C99.1965 31.3522 92.3057 28.4958 92.3057 18.3437C92.3057 8.19157 99.1965 5.34134 103.66 5.34134ZM23.2268 5.94568H30.7084C32.7633 5.94568 35.3694 6.43927 35.3694 9.98068C35.3694 13.5236 31.6511 14.968 28.8921 14.968H23.2268V5.94568Z" fill="#1C4F9C"/>
<path d="M0 0.396786V45.1481L6.97645 40.1913V0.396786H0ZM8.27551 41.8456L0 47.7303H122.064V41.8456H8.27551Z" fill="#EE293D"/>
</svg>
