<svg width="52" height="62" viewBox="0 0 52 62" fill="none" xmlns="http://www.w3.org/2000/svg">
<path fill-rule="evenodd" clip-rule="evenodd" d="M43.3502 28.0624C43.3516 28.1673 43.332 28.2715 43.2928 28.3689C43.2535 28.4663 43.1953 28.5549 43.1215 28.6296C43.0477 28.7043 42.9599 28.7636 42.863 28.8041C42.7661 28.8446 42.6622 28.8654 42.5572 28.8654C42.4522 28.8654 42.3482 28.8446 42.2514 28.8041C42.1545 28.7636 42.0666 28.7043 41.9928 28.6296C41.9191 28.5549 41.8609 28.4663 41.8216 28.3689C41.7823 28.2715 41.7628 28.1673 41.7641 28.0624C41.7699 27.8207 41.6976 27.5836 41.558 27.3862C41.4184 27.1888 41.2189 27.0417 40.9891 26.9667C40.5852 26.824 40.1445 26.824 39.7406 26.9667C39.5108 27.0417 39.3113 27.1888 39.1716 27.3862C39.032 27.5836 38.9598 27.8207 38.9656 28.0624C38.9656 28.9575 39.7468 29.128 40.5288 29.2986C41.9391 29.6064 43.3511 29.9145 43.3511 32.096C43.3511 33.442 42.5544 34.3028 41.5347 34.6787C41.4116 34.724 41.286 34.7619 41.1583 34.7922V35.3363C41.1557 35.5449 41.071 35.7441 40.9226 35.8907C40.7741 36.0373 40.5739 36.1195 40.3653 36.1195C40.1567 36.1195 39.9564 36.0373 39.808 35.8907C39.6595 35.7441 39.5748 35.5449 39.5722 35.3363V34.7922C39.4446 34.7619 39.3188 34.7239 39.1957 34.6787C38.1761 34.3028 37.3794 33.442 37.3794 32.096C37.3781 31.991 37.3977 31.8868 37.4369 31.7895C37.4762 31.6921 37.5344 31.6035 37.6082 31.5288C37.6819 31.4541 37.7698 31.3947 37.8667 31.3543C37.9636 31.3138 38.0675 31.2929 38.1725 31.2929C38.2775 31.2929 38.3815 31.3138 38.4783 31.3543C38.5752 31.3947 38.6631 31.4541 38.7369 31.5288C38.8106 31.6035 38.8688 31.6921 38.9081 31.7895C38.9474 31.8868 38.9669 31.991 38.9656 32.096C38.9598 32.3377 39.032 32.5748 39.1716 32.7722C39.3113 32.9695 39.5108 33.1166 39.7406 33.1916C40.1445 33.3343 40.5851 33.3343 40.9891 33.1916C41.2189 33.1166 41.4184 32.9695 41.558 32.7722C41.6976 32.5748 41.7699 32.3377 41.7641 32.096C41.7641 31.1904 40.9782 31.0189 40.1933 30.8476C38.7852 30.5404 37.3786 30.2334 37.3786 28.0624C37.3786 26.7164 38.1752 25.8556 39.1948 25.4797C39.318 25.4344 39.4437 25.3965 39.5713 25.3662V24.8221C39.574 24.6135 39.6587 24.4143 39.8071 24.2677C39.9556 24.1211 40.1558 24.0389 40.3644 24.0389C40.573 24.0389 40.7733 24.1211 40.9217 24.2677C41.0701 24.4143 41.1549 24.6135 41.1575 24.8221V25.3662C41.2851 25.3965 41.4108 25.4344 41.5338 25.4797C42.5535 25.8557 43.3502 26.7164 43.3502 28.0624ZM22.9137 5.52396C22.6741 5.52398 22.4399 5.59506 22.2407 5.7282C22.0415 5.86133 21.8862 6.05055 21.7945 6.27193C21.7028 6.49331 21.6789 6.7369 21.7256 6.9719C21.7724 7.2069 21.8878 7.42276 22.0572 7.59218C22.2267 7.7616 22.4425 7.87697 22.6775 7.92371C22.9125 7.97044 23.1561 7.94644 23.3775 7.85474C23.5989 7.76304 23.7881 7.60776 23.9212 7.40853C24.0543 7.2093 24.1254 6.97508 24.1254 6.73547C24.1254 6.57635 24.0941 6.41879 24.0332 6.27178C23.9723 6.12477 23.8831 5.99119 23.7705 5.87868C23.658 5.76618 23.5244 5.67694 23.3774 5.61608C23.2304 5.55521 23.0728 5.52391 22.9137 5.52396ZM31.6287 9.91999C31.389 9.91996 31.1547 9.99101 30.9555 10.1241C30.7562 10.2573 30.6009 10.4465 30.5092 10.6679C30.4174 10.8893 30.3934 11.1329 30.4402 11.368C30.4869 11.603 30.6023 11.8189 30.7718 11.9884C30.9412 12.1578 31.1571 12.2732 31.3922 12.32C31.6272 12.3667 31.8709 12.3427 32.0923 12.251C32.3137 12.1593 32.5029 12.004 32.636 11.8047C32.7691 11.6054 32.8402 11.3711 32.8402 11.1315C32.8402 10.9724 32.8089 10.8148 32.748 10.6679C32.6871 10.5209 32.5979 10.3873 32.4854 10.2748C32.3729 10.1623 32.2393 10.0731 32.0923 10.0122C31.9453 9.9513 31.7878 9.91997 31.6287 9.91999ZM14.1989 13.595C13.9593 13.595 13.7251 13.6661 13.5258 13.7992C13.3266 13.9323 13.1713 14.1215 13.0796 14.3429C12.9879 14.5643 12.9639 14.8079 13.0107 15.0429C13.0574 15.2779 13.1728 15.4938 13.3422 15.6632C13.5117 15.8326 13.7276 15.948 13.9626 15.9948C14.1976 16.0415 14.4412 16.0175 14.6625 15.9258C14.8839 15.8341 15.0731 15.6788 15.2062 15.4796C15.3394 15.2804 15.4104 15.0461 15.4104 14.8065C15.4105 14.6474 15.3791 14.4899 15.3183 14.3429C15.2574 14.1959 15.1682 14.0623 15.0557 13.9498C14.9431 13.8373 14.8096 13.748 14.6626 13.6872C14.5156 13.6263 14.358 13.595 14.1989 13.595ZM38.9991 2.57756C38.7904 2.55703 38.5984 2.45443 38.4654 2.29234C38.3323 2.13024 38.2691 1.92194 38.2896 1.71325C38.3102 1.50455 38.4128 1.31256 38.5749 1.17952C38.737 1.04647 38.9453 0.983266 39.154 1.0038L43.3177 1.41243C43.4262 1.41923 43.5322 1.44831 43.629 1.49786C43.7257 1.54742 43.8113 1.61638 43.8802 1.70045C43.9491 1.78452 44 1.8819 44.0297 1.9865C44.0593 2.09111 44.0671 2.2007 44.0525 2.30844L43.644 6.47097C43.6224 6.67883 43.5194 6.86969 43.3575 7.00184C43.1956 7.13399 42.988 7.19668 42.78 7.17622C42.5721 7.15575 42.3806 7.05379 42.2476 6.89262C42.1146 6.73145 42.0508 6.52417 42.0701 6.31609L42.3034 3.93932L34.2408 10.1252C34.3961 10.5285 34.4559 10.9622 34.4155 11.3924C34.3751 11.8226 34.2357 12.2376 34.0081 12.6048C33.7804 12.9721 33.4709 13.2817 33.1036 13.5093C32.7363 13.7369 32.3213 13.8764 31.8911 13.9168C31.4609 13.9572 31.0272 13.8974 30.624 13.7421C30.2208 13.5868 29.859 13.3402 29.567 13.0217C29.275 12.7032 29.0608 12.3214 28.941 11.9062C28.8213 11.4911 28.7994 11.0538 28.8769 10.6287L24.9534 8.65036C24.511 9.12155 23.9191 9.42508 23.2783 9.50939C22.6375 9.5937 21.9873 9.45359 21.4381 9.11286L16.6248 13.4123C16.9595 13.9951 17.0731 14.679 16.9447 15.3388C16.8163 15.9985 16.4545 16.5899 15.9256 17.0047C15.3967 17.4194 14.736 17.6297 14.0647 17.5971C13.3933 17.5645 12.7562 17.2911 12.27 16.827C11.7838 16.3629 11.4811 15.7392 11.4173 15.0701C11.3535 14.401 11.5328 13.7313 11.9225 13.1837C12.3122 12.6361 12.8862 12.2471 13.5392 12.0882C14.1923 11.9292 14.8808 12.0109 15.4785 12.3181L20.3856 7.93473C20.1967 7.5363 20.1046 7.09887 20.1169 6.65811C20.1292 6.21734 20.2455 5.78572 20.4563 5.39844C20.6671 5.01116 20.9664 4.67918 21.3299 4.42956C21.6934 4.17995 22.1107 4.01978 22.5479 3.9621C22.985 3.90443 23.4296 3.95088 23.8454 4.09768C24.2612 4.24447 24.6364 4.48746 24.9404 4.80682C25.2444 5.12617 25.4687 5.51287 25.5949 5.93536C25.721 6.35785 25.7456 6.80419 25.6665 7.23797L29.5891 9.21673C30.0559 8.7194 30.6883 8.40971 31.3674 8.3459C32.0464 8.28208 32.7254 8.46855 33.2767 8.87023L41.1973 2.79319L38.9986 2.57731L38.9991 2.57756ZM45.918 24.5265C44.6333 23.2417 42.9428 22.4421 41.1347 22.264C39.3265 22.0858 37.5125 22.5401 36.0018 23.5495C34.4911 24.5589 33.3771 26.0609 32.8496 27.7996C32.3222 29.5382 32.4139 31.406 33.1091 33.0846C33.8044 34.7632 35.0602 36.1488 36.6626 37.0054C38.2649 37.8619 40.1147 38.1363 41.8967 37.7819C43.6787 37.4274 45.2827 36.4661 46.4353 35.0616C47.588 33.6571 48.218 31.8964 48.218 30.0795C48.2194 29.048 48.0169 28.0264 47.6222 27.0735C47.2275 26.1205 46.6483 25.2549 45.918 24.5265ZM10.5395 44.1027L16.7146 53.8608L17.4921 53.4073C17.6506 53.3071 17.8397 53.2667 18.0253 53.2934L29.6685 54.975C30.8103 55.1584 31.9792 54.9034 32.9408 54.261C32.9408 54.261 47.1959 46.0314 48.494 45.282C48.9458 44.9887 49.2263 44.7154 49.3754 44.1771C49.4393 43.9544 49.4584 43.7213 49.4318 43.4913C49.4052 43.2612 49.3333 43.0386 49.2202 42.8364C49.1072 42.6342 48.9553 42.4564 48.7732 42.3132C48.5911 42.17 48.3825 42.0643 48.1594 42.0021C47.6853 41.8743 47.1805 41.9304 46.746 42.1591L37.3561 47.0239C37.4579 48.4285 36.6236 49.6563 35.3584 50.2864C34.9851 50.477 34.5772 50.5905 34.159 50.6203C33.7409 50.65 33.321 50.5953 32.9244 50.4595L23.5557 47.322C23.3568 47.2554 23.1925 47.1126 23.0989 46.9249C23.0053 46.7372 22.9901 46.52 23.0567 46.3211C23.1232 46.1221 23.2661 45.9578 23.4538 45.8642C23.6415 45.7706 23.8587 45.7554 24.0576 45.822L33.4263 48.9595C33.6264 49.0271 33.838 49.0537 34.0486 49.0378C34.2592 49.0219 34.4645 48.9638 34.6522 48.867C35.1072 48.6243 35.4755 48.2459 35.7058 47.7845C35.8382 47.3388 35.7931 46.8592 35.5801 46.4459C35.3671 46.0327 35.0026 45.7178 34.5628 45.567L21.7377 41.2717C20.7411 40.9209 19.6536 40.9264 18.6606 41.2873L10.5394 44.102L10.5395 44.1027ZM10.557 60.6306L0.734949 45.1084C0.623237 44.9309 0.586594 44.7163 0.633078 44.5118C0.679562 44.3073 0.805367 44.1296 0.982825 44.0178L7.10212 40.1457C7.27959 40.034 7.49416 39.9974 7.69864 40.0438C7.90312 40.0903 8.08076 40.2161 8.1925 40.3936L9.67214 42.7318L18.1472 39.7943C19.4692 39.3207 20.9134 39.313 22.2403 39.7724L35.0654 44.0677C35.8143 44.3177 36.451 44.8237 36.8638 45.4966L46.0218 40.7516C46.8097 40.3404 47.7239 40.2422 48.5813 40.4766C49.2182 40.6582 49.7873 41.024 50.217 41.528C50.6467 42.0321 50.9179 42.6519 50.9964 43.3095C51.075 43.9672 50.9574 44.6334 50.6585 45.2245C50.3596 45.8155 49.8927 46.3051 49.3164 46.6316L33.7989 55.5894C32.5189 56.4423 30.965 56.7826 29.4456 56.5428L18.0728 54.9L17.5603 55.1988L18.0141 55.9158C18.0694 56.0037 18.1069 56.1016 18.1244 56.204C18.1419 56.3063 18.139 56.4111 18.116 56.5124C18.093 56.6137 18.0502 56.7094 17.9902 56.7941C17.9302 56.8789 17.8541 56.951 17.7662 57.0063L11.647 60.8785C11.4695 60.9902 11.2549 61.0268 11.0504 60.9803C10.8459 60.9338 10.6683 60.808 10.5565 60.6306H10.557ZM2.49521 44.9325L7.27799 41.906C10.2702 46.6346 13.2623 51.3632 16.2544 56.0918L11.4716 59.1182L2.49521 44.9325ZM42.3467 20.8486V11.5583H38.3403V20.8576C39.66 20.5705 41.0257 20.5674 42.3467 20.8486ZM29.6254 33.7624V18.1083H33.6319V23.4635C32.3247 24.7947 31.4409 26.4831 31.0918 28.3159C30.7428 30.1487 30.9442 32.0438 31.6707 33.7623L29.6254 33.7624ZM20.9106 33.7624H24.917V15.4439H20.9106V33.7624ZM12.1957 33.7624H16.2022V20.7182H12.1957V33.7624ZM7.03087 35.3484H32.531C33.3548 36.5709 34.4534 37.5835 35.7389 38.305C37.0244 39.0265 38.461 39.437 39.9337 39.5034C41.4063 39.5698 42.8741 39.2904 44.2193 38.6875C45.5645 38.0846 46.7498 37.175 47.6803 36.0317C48.6107 34.8883 49.2605 33.5428 49.5774 32.1032C49.8943 30.6635 49.8697 29.1696 49.5054 27.7412C49.1411 26.3128 48.4473 24.9895 47.4796 23.8775C46.512 22.7654 45.2973 21.8955 43.9329 21.3373V10.7651C43.9329 10.5548 43.8493 10.353 43.7006 10.2043C43.5518 10.0556 43.3501 9.97199 43.1397 9.97199H37.5472C37.3368 9.97199 37.1351 10.0556 36.9864 10.2043C36.8376 10.353 36.7541 10.5548 36.7541 10.7651V21.3552C36.2182 21.5773 35.704 21.8485 35.2181 22.1652V17.3152C35.2181 17.1048 35.1345 16.9031 34.9858 16.7543C34.837 16.6056 34.6353 16.522 34.4249 16.522H28.8323C28.7281 16.522 28.625 16.5426 28.5288 16.5824C28.4325 16.6223 28.3451 16.6807 28.2715 16.7543C28.1978 16.828 28.1394 16.9154 28.0996 17.0117C28.0597 17.1079 28.0392 17.211 28.0393 17.3152V33.7624H26.5031V14.6508C26.5031 14.5466 26.4826 14.4435 26.4428 14.3473C26.403 14.251 26.3445 14.1636 26.2709 14.09C26.1973 14.0163 26.1098 13.9579 26.0136 13.918C25.9174 13.8782 25.8143 13.8576 25.7101 13.8576H20.1175C19.9071 13.8576 19.7054 13.9412 19.5566 14.0899C19.4079 14.2387 19.3243 14.4404 19.3243 14.6508V33.7624H17.7883V19.9248C17.7883 19.8207 17.7678 19.7175 17.7279 19.6213C17.6881 19.5251 17.6297 19.4377 17.556 19.364C17.4824 19.2904 17.3949 19.232 17.2987 19.1921C17.2025 19.1523 17.0993 19.1318 16.9952 19.1318H11.4026C11.2985 19.1318 11.1954 19.1523 11.0991 19.1921C11.0029 19.232 10.9155 19.2904 10.8418 19.364C10.7682 19.4377 10.7098 19.5251 10.6699 19.6213C10.63 19.7175 10.6095 19.8207 10.6095 19.9248V33.7624H7.03087C6.92588 33.7611 6.82168 33.7806 6.7243 33.8199C6.62693 33.8591 6.53832 33.9174 6.46361 33.9911C6.38891 34.0649 6.32959 34.1528 6.28911 34.2497C6.24863 34.3465 6.22778 34.4505 6.22778 34.5555C6.22778 34.6605 6.24863 34.7644 6.28911 34.8613C6.32959 34.9582 6.38891 35.046 6.46361 35.1198C6.53832 35.1936 6.62693 35.2518 6.7243 35.2911C6.82168 35.3303 6.92588 35.3499 7.03087 35.3485V35.3484Z" fill="black" stroke="black" stroke-width="0.5"/>
</svg>
