<svg width="61" height="60" viewBox="0 0 61 60" fill="none" xmlns="http://www.w3.org/2000/svg">
<path d="M60.0509 21.9157C60.0475 21.2886 59.7378 20.7028 59.2215 20.3468C58.6623 19.9694 57.9558 19.8839 57.3227 20.1169L47.0594 23.9844V18.2481L47.3692 18.458C47.8637 18.8051 48.4539 18.9902 49.0581 18.9876C50.0499 18.9881 50.9778 18.498 51.5365 17.6785C52.4651 16.3144 52.1167 14.4563 50.757 13.5212L31.7693 0.529655C31.2697 0.185231 30.6773 0.000541328 30.0705 0C29.4636 0.000541328 28.8712 0.185231 28.3716 0.529655L9.38392 13.5212C8.72354 13.9691 8.26893 14.6617 8.12075 15.4457C7.97257 16.2297 8.14305 17.0405 8.59443 17.6985C9.15964 18.5133 10.0912 18.9959 11.0828 18.9876C11.6852 18.988 12.2737 18.8069 12.7717 18.468L13.0815 18.2481V24.2442L2.83818 20.1369C2.22275 19.8879 1.52387 19.9608 0.973034 20.3314C0.4222 20.7019 0.0913095 21.3218 0.0899658 21.9857V48.9681C0.0899658 50.072 0.984814 50.9668 2.08866 50.9668H2.83818C3.95551 50.9598 4.97622 50.3319 5.48645 49.3379L6.32591 47.669L8.08476 48.4884C7.49684 50.0445 8.21261 51.7903 9.7237 52.4858C10.1401 52.6788 10.5939 52.7777 11.0528 52.7757C11.4429 52.7731 11.8291 52.6986 12.1921 52.5558C12.5183 53.3918 13.1559 54.0689 13.9709 54.4446C14.4292 54.6532 14.9265 54.7622 15.43 54.7644C15.8463 54.7651 16.2593 54.6906 16.6492 54.5445C16.9656 55.4294 17.6247 56.1497 18.478 56.5432C18.9347 56.7564 19.433 56.8656 19.937 56.863C20.2968 56.861 20.6541 56.8037 20.9964 56.6931V56.7431C21.271 57.4908 21.8319 58.0985 22.5553 58.432C23.8678 59.0322 25.4216 58.6123 26.2529 57.4326L28.6214 59.3414C29.5011 60.0061 30.6572 60.1807 31.694 59.8056C32.7308 59.4304 33.5074 58.5563 33.758 57.4826C34.8283 57.7942 35.9831 57.4862 36.7561 56.6831C37.2571 56.1891 37.5684 55.5347 37.6355 54.8343C37.7786 54.8435 37.9222 54.8435 38.0652 54.8343C39.8894 54.8385 41.4394 53.5014 41.7029 51.6964C42.0991 51.8302 42.5139 51.901 42.9321 51.9062C43.948 51.9089 44.9231 51.5065 45.6415 50.7881C46.3599 50.0697 46.7623 49.0946 46.7596 48.0787C46.7567 47.5774 46.6548 47.0815 46.4598 46.6197L52.8156 43.9714L54.6744 47.4091C55.2001 48.3698 56.2077 48.9675 57.3027 48.9681H58.0522C59.1293 48.9688 60.0132 48.1158 60.0509 47.0394V21.9157ZM11.6424 16.8191C11.1871 17.1308 10.5652 17.0145 10.2534 16.5592C10.1034 16.3365 10.0493 16.0627 10.1034 15.7997C10.153 15.5446 10.2999 15.3187 10.5132 15.1701L29.5008 2.17858C29.6661 2.05824 29.8661 1.99508 30.0705 1.9987C30.2742 1.99918 30.473 2.06195 30.6401 2.17858L49.6277 15.1701C50.0768 15.4815 50.1926 16.0958 49.8876 16.5492C49.5757 17.0045 48.9538 17.1209 48.4985 16.8091L30.6401 4.59701C30.2975 4.35936 29.8434 4.35936 29.5008 4.59701L11.6424 16.8191ZM30.0705 6.62569L45.0607 16.889V24.9837C44.0347 25.8258 43.7571 27.2809 44.4011 28.4415L45.4005 30.3003L42.7022 31.2996C41.7801 31.6579 40.7406 31.5383 39.924 30.9798L35.0672 27.3922V21.9857C35.0672 20.8818 34.1724 19.987 33.0685 19.987H27.0724C25.9686 19.987 25.0737 20.8818 25.0737 21.9857V28.5114C24.6959 29.0362 24.3616 29.591 24.0744 30.1704C22.9943 30.2691 21.9224 30.4427 20.8664 30.69C20.2792 30.836 19.6809 30.9329 19.0776 30.9798C17.7529 30.8218 16.4632 30.447 15.2601 29.8706L15.7398 28.8712C16.3616 27.6612 16.0909 26.1842 15.0802 25.2736V16.889L30.0705 6.62569ZM33.0685 26.0331C31.1436 25.0465 28.8286 25.2201 27.0724 26.4828V21.9857H33.0685V26.0331ZM2.83818 48.9681H2.08866V21.9857L13.4613 26.6027C13.7189 26.7065 13.9216 26.9129 14.0209 27.1723C14.1255 27.4473 14.1035 27.7544 13.9609 28.0118L3.70761 48.4385C3.53619 48.7605 3.20294 48.9635 2.83818 48.9681ZM10.5232 50.637C9.93398 50.3653 9.67497 49.6687 9.94355 49.0781L11.0828 46.6796C11.3545 46.0904 12.0512 45.8314 12.6418 46.1C12.9274 46.2261 13.1481 46.4649 13.2514 46.7596C13.3708 47.0509 13.3708 47.3776 13.2514 47.669L12.0822 50.0674C11.9519 50.3505 11.714 50.5699 11.4213 50.6768C11.1286 50.7838 10.8053 50.7695 10.5232 50.637ZM15.9097 52.6357C15.5456 52.7901 15.1345 52.7901 14.7704 52.6357C14.407 52.4739 14.1254 52.1707 13.9909 51.7963C13.8415 51.4278 13.8415 51.0155 13.9909 50.647L15.7098 46.9694C15.8754 46.6087 16.1773 46.3284 16.5493 46.1899C16.7162 46.131 16.8919 46.1006 17.0689 46.1C17.2856 46.0988 17.5 46.1431 17.6985 46.2299C18.0599 46.3996 18.3399 46.7048 18.478 47.0794C18.6329 47.4468 18.6329 47.8612 18.478 48.2286L16.7591 51.8662C16.5894 52.2276 16.2843 52.5076 15.9097 52.6457V52.6357ZM19.3075 54.6344C18.5566 54.2819 18.2273 53.3921 18.5679 52.6357L19.8271 49.9675C19.9954 49.6087 20.2963 49.3292 20.6666 49.188C20.8335 49.1291 21.0092 49.0987 21.1862 49.098C21.4042 49.0943 21.62 49.1422 21.8158 49.238C22.1785 49.4008 22.4598 49.7036 22.5953 50.0774C22.7344 50.4515 22.7164 50.866 22.5453 51.2267L21.3861 53.765L21.3062 53.9349C21.1408 54.2995 20.8366 54.5828 20.4611 54.7217C20.0857 54.8606 19.6703 54.8436 19.3075 54.6744V54.6344ZM23.3948 56.5132C23.1543 56.4028 22.9674 56.2016 22.8751 55.9536C22.7724 55.7074 22.7724 55.4303 22.8751 55.1841L23.1849 54.5145L24.1143 52.5158C24.2944 52.1563 24.6725 51.9397 25.0737 51.9662C25.2185 51.9654 25.3617 51.9961 25.4934 52.0561C25.7394 52.165 25.9311 52.3685 26.0251 52.6205C26.1191 52.8725 26.1076 53.1518 25.9931 53.3952L24.7439 56.1035C24.6295 56.3467 24.422 56.5337 24.1681 56.622C23.9143 56.7104 23.6355 56.6928 23.3948 56.5732V56.5132ZM44.2212 49.3279C43.5455 50.0099 42.4561 50.0493 41.7329 49.4178L36.876 45.1606L35.7268 44.1613C35.626 44.0701 35.5067 44.0019 35.377 43.9614C35.3272 43.9565 35.2769 43.9565 35.2271 43.9614C35.0248 43.9223 34.8154 43.9468 34.6275 44.0313C34.5116 44.0935 34.4069 44.1745 34.3177 44.2712C34.1418 44.4601 34.0515 44.7131 34.0678 44.9707C34.0636 45.0006 34.0636 45.0308 34.0678 45.0607C34.1007 45.2869 34.21 45.495 34.3777 45.6503L39.1445 49.8276C39.8234 50.4623 39.8592 51.5272 39.2245 52.206C38.5898 52.8849 37.5249 52.9207 36.846 52.286L36.7361 52.176L32.7387 48.1786C32.3468 47.7868 31.7115 47.7868 31.3196 48.1786C30.9278 48.5705 30.9278 49.2059 31.3196 49.5977L35.317 53.5951C35.5282 53.8036 35.6471 54.0879 35.6471 54.3846C35.6471 54.6813 35.5282 54.9657 35.317 55.1741C34.8707 55.5942 34.1744 55.5942 33.7281 55.1741L32.8686 54.3047L31.7494 53.1854C31.5617 52.9962 31.3063 52.8898 31.0398 52.8898C30.7734 52.8898 30.5179 52.9962 30.3303 53.1854C30.1411 53.373 30.0347 53.6285 30.0347 53.8949C30.0347 54.1614 30.1411 54.4168 30.3303 54.6045L31.4496 55.7237C31.6949 55.9583 31.8323 56.2838 31.8293 56.6231C31.8085 57.0866 31.5384 57.5024 31.1235 57.7099C30.7086 57.9173 30.2138 57.8839 29.8306 57.6225L27.1723 55.5638L27.7919 54.2047C28.1309 53.4803 28.1664 52.6505 27.8905 51.8998C27.6147 51.1492 27.0503 50.5398 26.3229 50.2073C25.791 49.967 25.2006 49.8871 24.624 49.9775C24.5894 49.7773 24.5393 49.5802 24.4741 49.3879C23.8859 47.7757 22.2096 46.8336 20.5267 47.1693C20.3997 46.1101 19.795 45.1673 18.8852 44.6102C17.9755 44.0531 16.8609 43.9429 15.8597 44.3112C15.3727 44.4959 14.9325 44.786 14.5705 45.1606C14.2735 44.7819 13.8895 44.4802 13.4513 44.2812C11.8589 43.545 9.97128 44.2383 9.23401 45.8302L8.86425 46.6496L7.22532 45.8701L14.3607 31.6594C15.8449 32.3686 17.4408 32.8149 19.0776 32.9785C19.8096 32.9341 20.5357 32.8204 21.2462 32.6388C21.8058 32.5188 22.4054 32.3989 23.035 32.299L21.3961 35.9766C20.6328 37.717 21.372 39.75 23.075 40.5936H23.1749C23.6428 40.8179 24.1551 40.934 24.674 40.9334C25.6998 40.9377 26.677 40.4965 27.3522 39.7241L31.2997 35.327L44.1413 46.7296C44.5201 47.0623 44.7437 47.5374 44.7589 48.0414C44.7741 48.5453 44.5793 49.0329 44.2212 49.3879V49.3279ZM45.2206 44.9408L30.73 32.229C30.3134 31.8934 29.7064 31.9455 29.3529 32.3471C28.9995 32.7487 29.025 33.3575 29.4109 33.7281L29.7706 34.0478L25.8332 38.435C25.3642 38.9707 24.5947 39.1262 23.9544 38.8147H23.8845C23.1842 38.4168 22.8956 37.5555 23.2149 36.816L25.5334 31.6794C26.08 30.4661 26.8651 29.3752 27.8419 28.4715C29.1678 27.2422 31.1789 27.1249 32.6388 28.1917L38.7248 32.6288C40.0796 33.6011 41.8302 33.8335 43.3918 33.2484L46.3898 32.1391L51.8563 42.2425L45.2206 44.9408ZM57.3227 46.9395C56.9648 46.9486 56.6293 46.7656 56.4433 46.4598L46.18 27.4721C46.0693 27.2733 46.051 27.036 46.13 26.8225C46.2257 26.5791 46.4227 26.3894 46.6696 26.3029L58.0522 21.9157V46.9694L57.3227 46.9395Z" fill="black"/>
<path d="M30.0705 17.9883C32.2782 17.9883 34.0679 16.1986 34.0679 13.9909C34.0679 11.7832 32.2782 9.9935 30.0705 9.9935C27.8628 9.9935 26.0731 11.7832 26.0731 13.9909C26.0731 16.1986 27.8628 17.9883 30.0705 17.9883ZM30.0705 11.9922C31.1743 11.9922 32.0692 12.887 32.0692 13.9909C32.0692 15.0947 31.1743 15.9896 30.0705 15.9896C28.9666 15.9896 28.0718 15.0947 28.0718 13.9909C28.0718 12.887 28.9666 11.9922 30.0705 11.9922Z" fill="black"/>
</svg>
