<svg width="61" height="60" viewBox="0 0 61 60" fill="none" xmlns="http://www.w3.org/2000/svg">
<path d="M22.5778 47.5804C23.2246 47.5804 23.7497 47.0558 23.7497 46.4085C23.7497 45.7613 23.2246 45.2367 22.5778 45.2367H8.51529C7.86801 45.2367 7.34341 45.7613 7.34341 46.4085C7.34341 47.0558 7.86801 47.5804 8.51529 47.5804H22.5778Z" fill="black"/>
<path d="M59.371 30.8698L46.2739 26.781C46.154 26.7403 46.0272 26.7183 45.8977 26.7183C45.8972 26.7183 45.8963 26.7183 45.8958 26.7183C45.7667 26.7183 45.6395 26.7403 45.52 26.7805L43.7778 27.3248V11.4844C43.7778 11.1607 43.6464 10.8678 43.4344 10.6558L33.1219 0.343323C32.91 0.13092 32.617 0 32.2934 0H3.70924C1.77061 0 0.193619 1.577 0.193619 3.51562V22.3828C0.193619 23.0301 0.718216 23.5547 1.36549 23.5547C2.01277 23.5547 2.53737 23.0301 2.53737 22.3828V3.51562C2.53737 2.86926 3.06288 2.34375 3.70924 2.34375H31.1215V9.30176C31.1215 11.1516 32.6262 12.6562 34.4755 12.6562H41.434V28.0563L32.4225 30.8698C31.9331 31.0226 31.5999 31.4758 31.5999 31.9885V32.1071H8.5153C7.86803 32.1071 7.34343 32.6317 7.34343 33.279C7.34343 33.9262 7.86803 34.4508 8.5153 34.4508H31.5999V38.6719H8.5153C7.86803 38.6719 7.34343 39.1965 7.34343 39.8438C7.34343 40.491 7.86803 41.0156 8.5153 41.0156H31.5999V42.9492C31.5999 46.647 32.7745 50.1173 34.7964 52.9688H3.70924C3.06288 52.9688 2.53737 52.4432 2.53737 51.7969V32.9297C2.53737 32.2824 2.01277 31.7578 1.36549 31.7578C0.718216 31.7578 0.193619 32.2824 0.193619 32.9297V51.7969C0.193619 53.7355 1.77061 55.3125 3.70924 55.3125H36.7905C39.164 57.6476 42.2191 59.3166 45.6761 59.9789C45.7489 59.9931 45.823 60 45.8967 60C45.9704 60 46.0446 59.9931 46.1174 59.9789C54.2738 58.4161 60.1936 51.254 60.1936 42.9492V31.9885C60.1936 31.4758 59.8604 31.0226 59.371 30.8698ZM34.4755 10.3125C33.9184 10.3125 33.4653 9.85931 33.4653 9.30176V4.00085L39.7764 10.3125H34.4755ZM57.8499 42.9492C57.8499 50.0565 52.8369 56.196 45.8967 57.6334C38.9566 56.196 33.9436 50.0565 33.9436 42.9492V32.8505L45.8967 29.1183L57.8499 32.8505V42.9492Z" fill="black"/>
<path d="M45.5475 31.6827L37.11 34.3172C36.6206 34.4701 36.2874 34.9228 36.2874 35.4355V42.9488C36.2874 48.6287 40.1115 53.6458 45.5864 55.1491C45.688 55.177 45.7924 55.1907 45.8967 55.1907C46.0011 55.1907 46.1055 55.177 46.2071 55.1491C51.6819 53.6458 55.5061 48.6287 55.5061 42.9492V35.4359C55.5061 34.9232 55.1729 34.4701 54.6835 34.3172L46.246 31.6827C46.0185 31.6118 45.775 31.6118 45.5475 31.6827ZM53.1624 36.2974V42.9488C53.1624 47.4683 50.1906 51.4728 45.8967 52.7985C41.6029 51.4728 38.6311 47.4683 38.6311 42.9488V36.2974L45.8967 34.0292L53.1624 36.2974Z" fill="black"/>
<path d="M42.9753 41.9939C42.5175 41.5361 41.7759 41.5361 41.3182 41.9939C40.8604 42.4516 40.8604 43.1937 41.3182 43.651L44.0181 46.3513C44.2469 46.5802 44.5468 46.6946 44.8466 46.6946C45.1465 46.6946 45.4463 46.5802 45.6752 46.3513L50.4753 41.5512C50.933 41.0934 50.933 40.3514 50.4753 39.8936C50.0175 39.4363 49.2759 39.4363 48.8177 39.8936L44.8466 43.8652L42.9753 41.9939Z" fill="black"/>
<path d="M25.3903 11.483H19.7653C19.118 11.483 18.5934 12.0081 18.5934 12.6549V16.1705H15.0778C14.4305 16.1705 13.9059 16.6956 13.9059 17.3424V22.9674C13.9059 23.6147 14.4305 24.1393 15.0778 24.1393H18.5934V27.6549C18.5934 28.3022 19.118 28.8268 19.7653 28.8268H25.3903C26.0371 28.8268 26.5622 28.3022 26.5622 27.6549V24.1393H30.0778C30.7246 24.1393 31.2497 23.6147 31.2497 22.9674V17.3424C31.2497 16.6956 30.7246 16.1705 30.0778 16.1705H26.5622V12.6549C26.5622 12.0081 26.0371 11.483 25.3903 11.483ZM28.9059 18.5143V21.7955H25.3903C24.743 21.7955 24.2184 22.3206 24.2184 22.9674V26.483H20.9372V22.9674C20.9372 22.3206 20.4121 21.7955 19.7653 21.7955H16.2497V18.5143H19.7653C20.4121 18.5143 20.9372 17.9897 20.9372 17.3424V13.8268H24.2184V17.3424C24.2184 17.9897 24.743 18.5143 25.3903 18.5143H28.9059Z" fill="black"/>
<path d="M1.36548 28.8281C1.67355 28.8281 1.97614 28.7027 2.19403 28.4848C2.41193 28.2669 2.53735 27.9643 2.53735 27.6562C2.53735 27.3482 2.41193 27.0456 2.19403 26.8277C1.97614 26.6098 1.67355 26.4844 1.36548 26.4844C1.0574 26.4844 0.754822 26.6098 0.536926 26.8277C0.319031 27.0456 0.193604 27.3482 0.193604 27.6562C0.193604 27.9643 0.319031 28.2669 0.536926 28.4848C0.754822 28.7027 1.0574 28.8281 1.36548 28.8281Z" fill="black"/>
</svg>
