<svg width="46" height="60" viewBox="0 0 46 60" fill="none" xmlns="http://www.w3.org/2000/svg">
<path d="M41.7308 50.625H37.8634V48.4571C37.8634 46.1877 37.0261 44.0206 35.5323 42.3447C35.7206 42.1739 35.9055 41.9979 36.0865 41.8169C38.9704 38.9329 40.5587 35.1108 40.5587 31.0547C40.5587 29.0266 40.1632 27.0588 39.3836 25.2001C39.4739 24.792 39.5229 24.3686 39.5229 23.9338C39.5229 22.1916 38.7578 20.6257 37.5469 19.5514L37.901 18.9379C38.6649 17.6149 38.4676 15.997 37.5284 14.8961L38.9583 12.4194C39.1603 12.4188 39.3638 12.3922 39.5644 12.3384C40.1699 12.1762 40.6754 11.7888 40.9878 11.2477L42.7456 8.20309C43.0692 7.64258 42.8772 6.92586 42.3167 6.60231L31.153 0.157005C30.8839 0.00149763 30.5637 -0.0404554 30.2638 0.0399351C29.9635 0.120443 29.7077 0.316732 29.5523 0.585911L27.7945 3.63056C27.3619 4.37985 27.3933 5.27024 27.796 5.97161L26.3651 8.44977C25.8566 8.35567 25.3287 8.37535 24.8133 8.51352C23.9044 8.75703 23.146 9.33781 22.6778 10.1487L16.2325 21.3125C15.7642 22.1234 15.6405 23.0705 15.884 23.9794C16.0222 24.4951 16.2691 24.962 16.6047 25.3553L15.3325 27.5588C15.0201 28.0999 14.9375 28.7314 15.0998 29.337C15.2621 29.9425 15.6494 30.4481 16.1904 30.7604L23.2946 34.8619C23.6628 35.0745 24.0651 35.1755 24.4625 35.1755C25.2731 35.1755 26.0625 34.7552 26.4961 34.0041L27.7688 31.7997C27.9768 31.8381 28.188 31.8588 28.4004 31.8588C28.7069 31.8588 29.0158 31.8184 29.3202 31.7368C30.2291 31.4933 30.9876 30.9125 31.4557 30.1015L31.8086 29.4904C32.3208 29.6618 32.864 29.7646 33.4278 29.7871C33.4935 30.2054 33.5275 30.6292 33.5275 31.0549C33.5275 33.2332 32.6706 35.2897 31.115 36.8454C29.5593 38.4012 27.5028 39.2579 25.3244 39.2579H21.2226C20.5755 39.2579 20.0507 39.7825 20.0507 40.4297C20.0507 41.077 20.5755 41.6016 21.2226 41.6016H25.3244C25.9705 41.6016 26.4962 42.1273 26.4962 42.7735C26.4962 43.4196 25.9705 43.9453 25.3244 43.9453H6.57487C5.9287 43.9453 5.403 43.4196 5.403 42.7735C5.403 42.1273 5.9287 41.6016 6.57487 41.6016H10.6757C11.3228 41.6016 11.8476 41.077 11.8476 40.4297C11.8476 39.7825 11.3228 39.2579 10.6757 39.2579H6.57487C4.63636 39.2579 3.05925 40.835 3.05925 42.7735C3.05925 44.712 4.63636 46.2891 6.57487 46.2891H9.5376V50.625H4.23089C2.29238 50.625 0.715271 52.2021 0.715271 54.1406V58.8281C0.715271 59.4754 1.24004 60 1.88714 60H44.0746C44.7217 60 45.2465 59.4754 45.2465 58.8281V54.1406C45.2465 52.2021 43.6693 50.625 41.7308 50.625ZM35.5197 48.4571V50.625H33.1759V48.4571C33.1759 47.0539 32.5319 45.7984 31.5241 44.9703C32.2693 44.6363 32.988 44.2408 33.6748 43.787C34.8549 45.0518 35.5197 46.7141 35.5197 48.4571ZM25.3244 46.2891H28.6642C29.8596 46.2891 30.8322 47.2616 30.8322 48.4571V50.625H22.4281V46.2891H25.3244ZM33.6635 27.4494C31.725 27.4494 30.1479 25.8722 30.1479 23.9337C30.1479 21.9952 31.725 20.4181 33.6635 20.4181C35.6021 20.4181 37.1792 21.9952 37.1792 23.9337C37.1792 25.8722 35.6021 27.4494 33.6635 27.4494ZM28.4951 9.44797L29.6671 7.41805L36.7714 11.5196L35.5994 13.5495L28.4951 9.44797ZM30.996 2.77263L40.1298 8.04606L38.9581 10.0757L29.8241 4.80231L30.996 2.77263ZM17.3623 28.7307L18.5343 26.7009L25.6384 30.8024L24.4666 32.8322L17.3623 28.7307ZM29.4261 28.9297C29.2709 29.1985 29.0179 29.3914 28.7137 29.4729C28.4097 29.5544 28.0942 29.5138 27.8253 29.3586L18.6924 24.0857C18.692 24.0855 18.6918 24.0853 18.6915 24.0851C18.6915 24.0851 18.6911 24.085 18.6909 24.0849C18.4223 23.9296 18.2295 23.6769 18.1481 23.3729C18.0666 23.0688 18.1072 22.7532 18.2624 22.4844L24.7077 11.3206C24.8629 11.0518 25.1159 10.8589 25.4201 10.7773C25.724 10.6959 26.0396 10.7364 26.3085 10.8917L35.4424 16.1651C36.0019 16.4882 36.1944 17.2064 35.8714 17.7659L35.5186 18.3769C34.9351 18.1816 34.3119 18.0742 33.6637 18.0742C30.4328 18.0742 27.8043 20.7028 27.8043 23.9336C27.8043 25.6758 28.5694 27.2419 29.7803 28.3161L29.4261 28.9297ZM28.4323 41.1327C30.0496 40.6319 31.5351 39.7398 32.7723 38.5027C34.7707 36.5043 35.8712 33.8593 35.8712 31.0549C35.8712 30.5033 35.8269 29.9538 35.741 29.4114C36.5446 29.1057 37.2637 28.6281 37.8538 28.0237C38.0937 29.0095 38.215 30.0228 38.215 31.0547C38.215 34.4848 36.8705 37.7182 34.4291 40.1596C32.8273 41.7614 30.8844 42.891 28.7689 43.4785C28.8154 43.2507 28.8399 43.0149 28.8399 42.7735C28.84 42.1812 28.6921 41.6229 28.4323 41.1327ZM11.8813 46.2891H20.0843V50.625H11.8813V46.2891ZM42.9027 57.6563H3.05902V54.1406C3.05902 53.4945 3.58472 52.9688 4.23089 52.9688H41.7308C42.377 52.9688 42.9027 53.4945 42.9027 54.1406V57.6563Z" fill="black"/>
<path d="M17.1215 40.4297C17.1215 39.7825 16.5967 39.2578 15.9496 39.2578H15.9487C15.3015 39.2578 14.7773 39.7825 14.7773 40.4297C14.7773 41.0769 15.3024 41.6016 15.9496 41.6016C16.5968 41.6016 17.1215 41.0769 17.1215 40.4297Z" fill="black"/>
</svg>
