<svg width="61" height="60" viewBox="0 0 61 60" fill="none" xmlns="http://www.w3.org/2000/svg">
<path d="M46.1837 17.4175C46.3841 17.9836 46.7549 18.4738 47.2452 18.8207C47.7354 19.1676 48.321 19.3542 48.9215 19.3548H52.7925V17.4194H48.9215C48.7212 17.419 48.5259 17.3566 48.3624 17.2408C48.199 17.125 48.0754 16.9614 48.0086 16.7725L47.8949 16.4516H52.7963C52.9995 16.4516 53.1976 16.3876 53.3624 16.2688C53.5273 16.15 53.6506 15.9824 53.7149 15.7896L55.9698 9.01541C56.0183 8.86992 56.0314 8.71499 56.0083 8.5634C55.9851 8.41182 55.9262 8.26791 55.8365 8.14354C55.7468 8.01917 55.6288 7.9179 55.4923 7.84808C55.3557 7.77825 55.2046 7.74187 55.0512 7.74194H44.8079L44.3503 6.45097C44.2836 6.26243 44.1601 6.0992 43.9967 5.98378C43.8334 5.86835 43.6383 5.8064 43.4383 5.80646H40.5351V7.74194H42.7551L46.1837 17.4175ZM53.7092 9.67743L52.0989 14.5161H47.2089L45.4939 9.67743H53.7092Z" fill="black"/>
<path d="M49.2448 21.2903C49.2448 20.7558 48.8115 20.3226 48.277 20.3226C47.7426 20.3226 47.3093 20.7558 47.3093 21.2903C47.3093 21.8248 47.7426 22.2581 48.277 22.2581C48.8115 22.2581 49.2448 21.8248 49.2448 21.2903Z" fill="black"/>
<path d="M53.1158 21.2903C53.1158 20.7558 52.6825 20.3226 52.148 20.3226C51.6135 20.3226 51.1803 20.7558 51.1803 21.2903C51.1803 21.8248 51.6135 22.2581 52.148 22.2581C52.6825 22.2581 53.1158 21.8248 53.1158 21.2903Z" fill="black"/>
<path d="M37.6319 13.5484H42.4706V15.4839H37.6319V13.5484Z" fill="black"/>
<path d="M40.5351 17.4193H44.4061V19.3548H40.5351V17.4193Z" fill="black"/>
<path d="M4.08414 33.3876L4.12005 33.2954C5.24657 30.353 6.5224 27.0207 9.18558 24.5158C9.78848 24.0905 15.3275 20.1794 15.3275 20.1794C15.428 20.1169 15.5418 20.079 15.6597 20.0686C15.7776 20.0583 15.8962 20.0758 16.0061 20.1198C16.1201 20.1635 16.2208 20.2363 16.2979 20.331C16.375 20.4256 16.4259 20.5389 16.4455 20.6595C16.4643 20.7841 16.4495 20.9115 16.4026 21.0285C16.3558 21.1456 16.2786 21.248 16.179 21.3253L11.9584 25.3007C11.794 25.4554 11.681 25.6569 11.6347 25.8778C11.5884 26.0988 11.611 26.3286 11.6994 26.5363C11.7902 26.7438 11.9419 26.9188 12.1346 27.0379C12.3272 27.157 12.5515 27.2146 12.7777 27.2031L20.1369 26.7717C20.6116 26.7868 21.0821 26.6797 21.5035 26.4608L27.5783 23.1986C27.8451 23.3103 28.0792 23.4879 28.2587 23.7147C28.4382 23.9415 28.5572 24.2101 28.6046 24.4954L20.445 29.5748C20.2638 29.6893 20.0697 29.7819 19.8666 29.8507L15.5619 31.3052C13.685 31.9388 10.4255 33.3356 9.68266 35.566C9.67159 35.5974 9.66244 35.6294 9.65525 35.6619L9.00977 38.5665L10.8999 38.9866L11.534 36.1373C11.9017 35.1435 13.7162 33.9712 16.1818 33.1386L19.5051 32.016L18.4311 35.3119L18.2184 35.282C17.986 35.2484 17.7494 35.3008 17.5529 35.4294C17.3564 35.558 17.2137 35.754 17.1515 35.9804L11.7325 55.4354C11.6959 55.5663 11.6874 55.7035 11.7074 55.838C11.7274 55.9725 11.7755 56.1012 11.8487 56.2159C11.9218 56.3305 12.0182 56.4284 12.1318 56.5033C12.2453 56.5781 12.3733 56.6282 12.5074 56.6502L19.9201 57.8676L19.8288 58.951C19.8175 59.0844 19.834 59.2188 19.8772 59.3456C19.9205 59.4723 19.9897 59.5887 20.0803 59.6873C20.1709 59.7859 20.2811 59.8647 20.4037 59.9185C20.5264 59.9723 20.6588 60.0001 20.7928 60H32.9869C33.1208 60.0001 33.2533 59.9723 33.376 59.9185C33.4986 59.8646 33.6088 59.7859 33.6994 59.6873C33.79 59.5887 33.8592 59.4723 33.9025 59.3456C33.9457 59.2188 33.9622 59.0844 33.9509 58.951L33.8532 57.7913L42.7324 55.2917C42.8595 55.2561 42.978 55.1948 43.0805 55.1116C43.1831 55.0284 43.2675 54.9251 43.3286 54.808C43.3897 54.691 43.4262 54.5627 43.4358 54.431C43.4454 54.2993 43.4279 54.167 43.3845 54.0424L36.6103 34.5873C36.5292 34.3546 36.3625 34.1616 36.144 34.0477C35.9255 33.9337 35.6718 33.9073 35.4346 33.974L34.5893 34.212L32.7781 23.9256L32.7599 23.9288C33.0202 23.5776 33.188 23.1666 33.248 22.7335C33.308 22.3005 33.2582 21.8593 33.1031 21.4505C32.9685 21.1014 32.7616 20.7847 32.496 20.5211C32.2303 20.2576 31.912 20.0532 31.5618 19.9214C31.2066 19.787 30.8272 19.7286 30.4481 19.7499C30.069 19.7713 29.6985 19.8719 29.3607 20.0452L29.2569 20.101L29.3144 20.0178C29.495 19.7289 29.6099 19.4039 29.651 19.0657C29.6921 18.7275 29.6585 18.3844 29.5523 18.0607C29.4462 17.7369 29.2703 17.4405 29.037 17.1922C28.8036 16.944 28.5186 16.75 28.2021 16.6241C27.718 16.4284 27.1827 16.3982 26.6797 16.5383C26.1767 16.6784 25.734 16.9808 25.4208 17.3986L23.9672 19.3492C23.9451 19.3792 23.9187 19.4058 23.8888 19.4281L16.4337 25.0516L14.9542 25.1376L17.4737 22.7627C17.8171 22.4679 18.0785 22.0894 18.2327 21.6639C18.3869 21.2384 18.4286 20.7802 18.3538 20.3339C18.279 19.8875 18.0902 19.468 17.8057 19.116C17.5212 18.7641 17.1507 18.4915 16.73 18.3247C16.3277 18.1658 15.8934 18.105 15.4629 18.1474C15.0325 18.1898 14.6183 18.3342 14.2548 18.5686C7.94845 23.0203 7.94845 23.0203 7.91349 23.0557C4.89026 25.871 3.52091 29.4476 2.31213 32.6032L0.939941 35.7157L2.71099 36.4982L4.08414 33.3876ZM20.0831 55.9329L13.8863 54.9151L18.7883 37.3167L21.6181 37.7148L20.0831 55.9329ZM20.3784 35.5858L21.8867 30.9571L23.2122 30.132V33.9377H22.8256C22.583 33.9376 22.3493 34.0286 22.1707 34.1929C21.9922 34.3571 21.8818 34.5824 21.8617 34.8241L21.7809 35.7831L20.3784 35.5858ZM35.0821 36.0838L41.2184 53.7073L33.6877 55.8277L32.095 36.9242L35.0821 36.0838ZM32.7119 34.7059L33.0388 34.6483L31.9295 34.9606L31.918 34.8241C31.8978 34.5823 31.7875 34.357 31.609 34.1928C31.4304 34.0286 31.1966 33.9375 30.9541 33.9376H30.5676V25.5532L31.0477 25.2544L32.7119 34.7059ZM30.2548 21.7615C30.35 21.7137 30.4541 21.6862 30.5605 21.6808C30.6669 21.6753 30.7732 21.692 30.8729 21.7298C30.9706 21.7672 31.0593 21.8248 31.1332 21.8988C31.2071 21.9728 31.2646 22.0616 31.3019 22.1593C31.351 22.3239 31.3427 22.5003 31.2785 22.6596C31.2143 22.8189 31.098 22.9518 30.9485 23.0363L30.3064 23.436C30.1205 22.9638 29.8378 22.5358 29.4765 22.1794L30.2548 21.7615ZM30.0648 35.8731L31.9341 58.0645H21.8456L23.7149 35.8731L30.0648 35.8731ZM28.6321 33.9376H25.1476V28.9271L28.6321 26.7581L28.6321 33.9376ZM25.055 20.9733C25.2295 20.8409 25.3848 20.6849 25.5162 20.5097L26.9725 18.5558C27.0305 18.4812 27.1112 18.4275 27.2025 18.4029C27.2937 18.3782 27.3905 18.384 27.4781 18.4193C27.5336 18.4404 27.5836 18.4737 27.6245 18.5167C27.6654 18.5597 27.6961 18.6113 27.7145 18.6678C27.7312 18.7139 27.7384 18.763 27.7357 18.8121C27.7329 18.8612 27.7202 18.9091 27.6984 18.9532L25.5147 22.1105L20.6095 24.7445C20.4553 24.8232 20.2817 24.8557 20.1096 24.8381L19.9167 24.8493L25.055 20.9733Z" fill="black"/>
<path d="M47.3093 27.0968C49.9889 27.0968 52.6083 26.3022 54.8364 24.8135C57.0644 23.3247 58.8009 21.2088 59.8264 18.7331C60.8518 16.2575 61.1201 13.5334 60.5973 10.9052C60.0746 8.2771 58.7842 5.86301 56.8894 3.96824C54.9947 2.07346 52.5806 0.783102 49.9524 0.260335C47.3243 -0.262433 44.6002 0.00587029 42.1245 1.03132C39.6489 2.05676 37.5329 3.79329 36.0442 6.02131C34.5555 8.24933 33.7609 10.8688 33.7609 13.5484C33.7649 17.1404 35.1936 20.5842 37.7336 23.1241C40.2735 25.664 43.7173 27.0928 47.3093 27.0968ZM47.3093 1.93549C49.6061 1.93549 51.8513 2.61657 53.7611 3.89262C55.6708 5.16866 57.1593 6.98235 58.0382 9.10433C58.9172 11.2263 59.1471 13.5613 58.699 15.814C58.251 18.0666 57.1449 20.1359 55.5208 21.76C53.8968 23.384 51.8275 24.4901 49.5748 24.9382C47.3222 25.3862 44.9872 25.1563 42.8652 24.2773C40.7432 23.3984 38.9295 21.9099 37.6535 20.0002C36.3775 18.0904 35.6964 15.8452 35.6964 13.5484C35.6998 10.4695 36.9244 7.51773 39.1015 5.34063C41.2786 3.16353 44.2304 1.93893 47.3093 1.93549Z" fill="black"/>
</svg>
